<svg width="32" height="32" viewBox="0 0 32 32" fill="none" xmlns="http://www.w3.org/2000/svg">
<path d="M10 22.3332C10 18.8984 11.414 15.7892 13.6876 13.5508C12.4624 12.9884 11.1044 12.6668 9.6668 12.6668C4.328 12.6668 0 16.9948 0 22.3332C0 27.672 4.328 32 9.6668 32C11.1044 32 12.462 31.6784 13.6876 31.116C11.414 28.8776 10 25.7684 10 22.3332Z" fill="#F66200"/>
<path d="M22.3332 22C18.8984 22 15.7892 20.586 13.5508 18.3112C12.9884 19.5376 12.6668 20.8956 12.6668 22.3332C12.6668 27.672 16.9948 32 22.3332 32C27.672 32 32 27.672 32 22.3332C32 20.8956 31.6784 19.538 31.116 18.3112C28.8776 20.586 25.7684 22 22.3332 22Z" fill="#CF1E1F"/>
<path d="M22.3332 0C20.8956 0 19.538 0.3216 18.3112 0.884C20.586 3.1224 22 6.2316 22 9.6668C22 13.1016 20.586 16.2108 18.3112 18.4492C19.5376 19.0116 20.8956 19.3332 22.3332 19.3332C27.672 19.3332 32 15.0052 32 9.6668C32 4.328 27.672 0 22.3332 0Z" fill="#F66200"/>
<path d="M9.6668 10C13.1016 10 16.2108 11.414 18.4492 13.6876C19.0116 12.4624 19.3332 11.1044 19.3332 9.6668C19.3332 4.328 15.0052 0 9.6668 0C4.328 0 0 4.328 0 9.6668C0 11.1044 0.3216 12.462 0.884 13.6876C3.1224 11.414 6.2316 10 9.6668 10Z" fill="#CF1E1F"/>
</svg>
